<svg width="1024" height="1024" viewBox="0 0 1024 1024" fill="none" xmlns="http://www.w3.org/2000/svg">
<rect width="1024" height="1024" fill="url(#paint0_linear_2739_83)"/>
<path d="M399.1 848H314.5V434C314.5 363.2 333.4 308 371.2 268.4C409.6 228.8 460.3 209 523.3 209C590.5 209 642.4 228.2 679 266.6C716.2 305 734.8 353.9 734.8 413.3C734.8 450.5 727.9 482.9 714.1 510.5C700.9 538.1 682.9 559.4 660.1 574.4C637.3 589.4 613 600.5 587.2 607.7C561.4 614.9 534.4 618.5 506.2 618.5H438.7V539.3H516.1C556.3 539.3 587.8 527.3 610.6 503.3C634 478.7 645.7 448.1 645.7 411.5C645.7 375.5 634.9 346.1 613.3 323.3C592.3 299.9 562 288.2 522.4 288.2C484 288.2 453.7 301.4 431.5 327.8C409.9 353.6 399.1 387.8 399.1 430.4V848Z" fill="white"/>
<defs>
<linearGradient id="paint0_linear_2739_83" x1="0" y1="0" x2="1024" y2="0" gradientUnits="userSpaceOnUse">
<stop stop-color="#2563EB"/>
<stop offset="1" stop-color="#608DEF"/>
</linearGradient>
</defs>
</svg>
